<svg xmlns="http://www.w3.org/2000/svg" xmlns:xlink="http://www.w3.org/1999/xlink" width="1920" zoomAndPan="magnify" viewBox="0 0 1440 809.999993" height="1080" preserveAspectRatio="xMidYMid meet" version="1.2"><defs><clipPath id="b70e1c0b74"><path d="M 1036 0 L 1440 0 L 1440 810 L 1036 810 Z M 1036 0 "/></clipPath><clipPath id="1b9528cafa"><path d="M 1707.398438 876.394531 L 1036.320312 -335.585938 L 1208.453125 -430.898438 L 1879.53125 781.082031 Z M 1707.398438 876.394531 "/></clipPath><clipPath id="5a8ab75d9c"><path d="M 803 0 L 1440 0 L 1440 810 L 803 810 Z M 803 0 "/></clipPath><clipPath id="42be21c4dc"><path d="M 1499.304688 1026.113281 L 803.839844 -229.902344 L 1027.636719 -353.820312 L 1723.101562 902.195312 Z M 1499.304688 1026.113281 "/></clipPath><clipPath id="1792393dc5"><path d="M 720 0 L 1440 0 L 1440 810 L 720 810 Z M 720 0 "/></clipPath><clipPath id="f47631fec5"><path d="M 1415.464844 1072.535156 L 720 -183.480469 L 807.09375 -231.703125 L 1502.554688 1024.3125 Z M 1415.464844 1072.535156 "/></clipPath></defs><g id="0d733868cc"><rect x="0" width="1440" y="0" height="809.999993" style="fill:#ffffff;fill-opacity:1;stroke:none;"/><rect x="0" width="1440" y="0" height="809.999993" style="fill:#fbf3f3;fill-opacity:1;stroke:none;"/><g clip-rule="nonzero" clip-path="url(#b70e1c0b74)"><g clip-rule="nonzero" clip-path="url(#1b9528cafa)"><path style=" stroke:none;fill-rule:nonzero;fill:#d32f2f;fill-opacity:1;" d="M 1707.398438 876.394531 L 1036.5 -335.261719 L 1208.632812 -430.570312 L 1879.53125 781.082031 Z M 1707.398438 876.394531 "/></g></g><g clip-rule="nonzero" clip-path="url(#5a8ab75d9c)"><g clip-rule="nonzero" clip-path="url(#42be21c4dc)"><path style=" stroke:none;fill-rule:nonzero;fill:#f9a825;fill-opacity:1;" d="M 1499.304688 1026.113281 L 803.722656 -230.121094 L 1027.519531 -354.035156 L 1723.101562 902.195312 Z M 1499.304688 1026.113281 "/></g></g><g clip-rule="nonzero" clip-path="url(#1792393dc5)"><g clip-rule="nonzero" clip-path="url(#f47631fec5)"><path style=" stroke:none;fill-rule:nonzero;fill:#884c38;fill-opacity:1;" d="M 1415.464844 1072.535156 L 720 -183.480469 L 807.09375 -231.703125 L 1502.554688 1024.3125 Z M 1415.464844 1072.535156 "/></g></g></g></svg>