<svg xmlns="http://www.w3.org/2000/svg" xmlns:xlink="http://www.w3.org/1999/xlink" width="1920" zoomAndPan="magnify" viewBox="0 0 1440 809.999993" height="1080" preserveAspectRatio="xMidYMid meet" version="1.0"><defs><clipPath id="5c3e0cf975"><path d="M 1036 0 L 1440 0 L 1440 810 L 1036 810 Z M 1036 0 " clip-rule="nonzero"/></clipPath><clipPath id="c06db5789f"><path d="M 1707.398438 876.394531 L 1036.320312 -335.585938 L 1208.453125 -430.898438 L 1879.53125 781.082031 Z M 1707.398438 876.394531 " clip-rule="nonzero"/></clipPath><clipPath id="fd36ae17ea"><path d="M 803 0 L 1440 0 L 1440 810 L 803 810 Z M 803 0 " clip-rule="nonzero"/></clipPath><clipPath id="71b5c2e67d"><path d="M 1499.304688 1026.113281 L 803.839844 -229.902344 L 1027.636719 -353.820312 L 1723.101562 902.195312 Z M 1499.304688 1026.113281 " clip-rule="nonzero"/></clipPath><clipPath id="f88547eaab"><path d="M 720 0 L 1440 0 L 1440 810 L 720 810 Z M 720 0 " clip-rule="nonzero"/></clipPath><clipPath id="52155c7539"><path d="M 1415.464844 1072.535156 L 720 -183.480469 L 807.09375 -231.703125 L 1502.554688 1024.3125 Z M 1415.464844 1072.535156 " clip-rule="nonzero"/></clipPath></defs><g clip-path="url(#5c3e0cf975)"><g clip-path="url(#c06db5789f)"><path fill="#f18822" d="M 1707.398438 876.394531 L 1036.5 -335.261719 L 1208.632812 -430.570312 L 1879.53125 781.082031 Z M 1707.398438 876.394531 " fill-opacity="1" fill-rule="nonzero"/></g></g><g clip-path="url(#fd36ae17ea)"><g clip-path="url(#71b5c2e67d)"><path fill="#d3b581" d="M 1499.304688 1026.113281 L 803.722656 -230.121094 L 1027.519531 -354.035156 L 1723.101562 902.195312 Z M 1499.304688 1026.113281 " fill-opacity="1" fill-rule="nonzero"/></g></g><g clip-path="url(#f88547eaab)"><g clip-path="url(#52155c7539)"><path fill="#262626" d="M 1415.464844 1072.535156 L 720 -183.480469 L 807.09375 -231.703125 L 1502.554688 1024.3125 Z M 1415.464844 1072.535156 " fill-opacity="1" fill-rule="nonzero"/></g></g></svg>